<?xml version="1.0" standalone="no"?>
<!DOCTYPE svg PUBLIC "-//W3C//DTD SVG 20010904//EN"
 "http://www.w3.org/TR/2001/REC-SVG-20010904/DTD/svg10.dtd">
<svg version="1.0" xmlns="http://www.w3.org/2000/svg"
 width="864.000000pt" height="864.000000pt" viewBox="0 0 864.000000 864.000000"
 preserveAspectRatio="xMidYMid meet">
<metadata>
Created by potrace 1.11, written by Peter Selinger 2001-2013
</metadata>
<g transform="translate(0.000000,864.000000) scale(0.100000,-0.100000)"
fill="#000000" stroke="none">
<path d="M2014 8613 c-3 -16 -15 -64 -26 -108 -24 -98 -28 -113 -33 -145 -2
-14 -9 -40 -14 -58 -5 -18 -10 -35 -10 -37 -1 -3 -1 -6 -2 -7 0 -2 -2 -11 -4
-20 -2 -9 -13 -59 -25 -110 -13 -51 -24 -100 -25 -108 -1 -8 -7 -33 -13 -55
-6 -22 -13 -51 -16 -65 -2 -14 -16 -72 -30 -130 -14 -58 -27 -116 -30 -130 -3
-14 -12 -54 -21 -90 -9 -35 -18 -74 -20 -85 -2 -11 -4 -20 -5 -20 -1 0 -4 -11
-6 -25 -7 -42 -12 -65 -14 -65 -2 0 -4 -10 -13 -55 -3 -14 -20 -83 -37 -155
-17 -71 -34 -140 -36 -153 -3 -13 -18 -81 -35 -150 -16 -70 -32 -136 -34 -147
-2 -11 -4 -20 -5 -20 -1 0 -4 -11 -6 -24 -2 -14 -12 -52 -20 -85 -9 -34 -18
-72 -20 -86 -3 -14 -9 -41 -14 -60 -5 -19 -12 -48 -15 -65 -3 -16 -14 -62 -24
-102 -10 -40 -16 -74 -13 -77 3 -4 0 -6 -7 -6 -7 0 -10 -3 -7 -8 2 -4 -7 -54
-21 -112 -13 -58 -40 -172 -59 -255 -42 -179 -42 -179 -44 -182 -3 -4 -4 -8
-14 -58 -4 -22 -19 -87 -33 -145 -34 -144 -34 -140 -40 -182 -3 -21 -9 -38
-13 -38 -5 0 -7 -8 -6 -17 2 -9 -6 -49 -16 -87 -10 -39 -20 -80 -22 -91 -5
-25 -32 -140 -51 -220 -8 -33 -26 -109 -40 -170 -14 -60 -30 -128 -35 -150 -6
-22 -12 -49 -15 -60 -2 -11 -15 -67 -30 -125 -14 -58 -28 -118 -31 -135 -3
-16 -12 -57 -21 -90 -8 -33 -17 -71 -20 -85 -4 -22 -17 -79 -27 -120 -5 -19
-27 -111 -31 -130 -1 -8 -8 -33 -13 -55 -6 -22 -13 -51 -16 -65 -3 -14 -9 -40
-15 -58 -5 -18 -10 -35 -10 -37 1 -9 -12 -66 -42 -193 -16 -68 -31 -133 -33
-145 -3 -12 -5 -23 -7 -24 -2 -3 -2 -3 -14 -58 -4 -22 -10 -44 -11 -50 -2 -5
-5 -21 -8 -35 -9 -42 -17 -74 -20 -85 -2 -5 -7 -28 -11 -50 -12 -55 -12 -55
-14 -57 -2 -2 -4 -13 -7 -26 l-4 -23 1728 4 c950 1 1743 6 1762 10 19 4 51 9
71 12 78 9 286 64 347 91 18 9 42 17 52 19 11 2 26 7 33 12 6 4 14 8 17 8 12
0 225 110 228 117 2 4 8 8 13 8 10 0 79 47 189 129 78 58 241 216 300 290 19
24 40 48 45 55 6 6 33 45 60 86 28 41 53 77 56 80 7 6 106 191 108 202 1 4 11
29 22 55 43 97 92 254 115 363 3 14 19 81 35 150 43 179 60 251 65 272 2 10 6
26 8 36 2 9 9 37 15 62 5 25 17 76 26 114 17 69 21 87 31 136 6 27 8 32 17 70
12 44 99 414 103 435 7 35 12 57 43 188 17 70 33 140 36 157 3 16 10 41 15 55
5 14 9 29 9 33 -1 4 0 9 1 12 3 8 8 33 15 65 3 17 8 38 11 47 3 9 6 25 8 35 2
10 18 79 36 153 18 74 34 143 36 153 2 9 6 25 8 35 3 9 15 60 27 112 30 134
49 213 53 230 75 279 79 537 12 785 -16 60 -29 100 -36 114 -5 9 -20 43 -34
76 -76 187 -227 383 -412 533 -29 23 -57 42 -63 42 -6 0 -11 3 -11 8 0 6 -19
19 -90 60 -126 73 -293 133 -450 162 -100 18 -175 19 -1692 20 l-1588 0 -6
-27z"/>
<path d="M7060 6896 c0 -3 7 -35 16 -73 23 -100 28 -154 28 -303 1 -153 -8
-230 -36 -335 -5 -22 -12 -47 -13 -55 -2 -8 -22 -94 -45 -190 -23 -96 -43
-186 -46 -200 -3 -14 -7 -33 -10 -42 -3 -9 -7 -25 -9 -36 -2 -10 -15 -68 -30
-128 -15 -60 -29 -120 -31 -134 -3 -14 -18 -79 -34 -145 -16 -66 -36 -151 -45
-190 -10 -38 -18 -80 -20 -92 -2 -11 -10 -45 -18 -75 -12 -43 -34 -132 -52
-218 -2 -8 -15 -64 -29 -125 -15 -60 -29 -121 -32 -135 -3 -14 -12 -52 -20
-85 -8 -33 -16 -69 -19 -80 -44 -189 -57 -244 -61 -265 -3 -14 -7 -33 -10 -42
-3 -9 -7 -25 -9 -35 -2 -10 -8 -38 -14 -63 -7 -25 -14 -56 -17 -70 -3 -14 -10
-43 -15 -65 -5 -22 -12 -50 -15 -63 -22 -104 -59 -242 -86 -322 -18 -52 -31
-98 -30 -103 1 -4 -3 -7 -8 -7 -6 0 -10 -6 -10 -13 0 -14 -85 -186 -129 -262
-97 -167 -321 -418 -465 -520 -16 -11 -33 -24 -40 -30 -6 -5 -31 -23 -56 -40
-25 -16 -47 -33 -48 -38 -2 -4 -8 -5 -13 -1 -5 3 -9 0 -9 -5 0 -6 -6 -11 -14
-11 -8 0 -16 -4 -18 -9 -5 -15 -269 -139 -363 -170 -124 -41 -219 -65 -305
-77 -25 -3 -54 -8 -65 -11 -61 -14 -348 -16 -1953 -17 -1564 -1 -1763 -2
-1767 -16 -3 -12 -59 -251 -70 -300 -2 -8 -15 -62 -29 -120 -14 -58 -28 -120
-31 -139 -3 -19 -8 -37 -10 -41 -2 -4 -7 -20 -9 -36 -7 -36 -10 -48 -36 -154
-12 -47 -23 -97 -25 -112 -2 -15 -7 -32 -10 -38 -4 -6 -9 -26 -12 -43 -2 -18
-11 -53 -18 -79 -8 -27 -12 -48 -10 -48 3 0 0 -11 -5 -25 -5 -14 -12 -36 -14
-48 -4 -21 -43 -196 -51 -227 -22 -92 -45 -190 -49 -210 -2 -14 -5 -25 -6 -25
-2 0 -5 -13 -13 -55 -3 -14 -10 -37 -15 -51 -6 -15 -9 -29 -6 -32 2 -2 0 -15
-5 -29 -5 -14 -12 -40 -15 -60 -3 -19 -9 -43 -13 -53 -6 -17 -1 -16 38 6 24
15 107 61 184 105 77 43 154 86 170 96 17 9 49 26 73 38 23 12 42 25 42 29 0
4 6 8 13 8 6 0 91 45 187 100 175 100 228 130 317 179 27 15 52 30 57 35 8 7
92 -49 151 -103 17 -16 33 -28 36 -28 4 0 24 -16 45 -35 22 -19 42 -35 46 -35
4 0 13 -6 20 -13 7 -7 42 -35 78 -62 71 -55 68 -53 160 -125 92 -72 89 -70
160 -125 36 -27 74 -58 84 -67 11 -10 23 -15 27 -11 6 8 26 82 35 133 3 14 9
41 14 60 5 19 11 46 14 60 3 14 13 54 21 90 8 36 18 75 20 87 4 18 50 211 59
248 2 6 7 28 11 50 12 55 12 54 15 60 3 7 5 13 15 65 10 52 12 58 15 65 3 6 3
5 15 60 4 22 10 47 12 55 2 8 5 21 5 28 1 6 6 13 12 13 6 1 605 2 1331 4 726
1 1347 5 1380 9 33 4 103 16 155 27 52 11 106 22 120 25 81 17 404 143 420
165 3 3 15 9 28 13 12 4 22 12 22 17 0 5 6 9 13 9 12 0 149 87 193 123 177
143 267 234 376 376 15 20 31 41 35 46 27 34 147 233 149 245 0 3 12 30 27 60
60 127 117 295 143 424 2 11 15 67 29 125 39 164 83 353 90 381 4 21 26 113
40 171 2 9 8 33 13 53 6 20 8 36 5 36 -3 0 0 6 6 13 6 8 9 16 6 18 -2 3 0 22
6 43 6 21 12 46 14 55 1 9 8 36 15 61 7 25 14 56 17 70 2 14 13 61 25 105 11
44 22 91 24 104 3 12 12 53 20 90 9 36 18 74 20 84 2 9 6 27 10 40 3 12 7 33
10 47 3 14 8 34 11 45 4 11 7 27 9 35 1 8 7 35 13 60 7 25 14 54 16 65 2 11 6
30 9 43 4 12 8 32 11 45 5 26 22 97 35 147 11 41 79 333 86 370 3 14 9 41 14
60 5 19 11 46 14 60 2 14 14 63 26 110 12 47 24 94 26 105 3 19 6 31 20 95 3
14 7 50 8 82 2 31 6 60 8 65 5 11 2 149 -6 237 -3 37 -16 109 -28 160 -26 108
-23 96 -32 121 -4 11 -13 34 -18 50 -41 116 -159 318 -237 405 -117 130 -249
244 -346 296 -11 6 -41 23 -67 38 -27 15 -48 25 -48 22z"/>
</g>
</svg>
