<svg width="177" height="27" xmlns="http://www.w3.org/2000/svg"><g fill="#000" fill-rule="evenodd"><path d="M45.913 12.825c0-1.253-.943-1.844-2.133-1.844-.538 0-.822.012-1.147.04v3.7c.368.03.68.042.928.042 1.472 0 2.352-.495 2.352-1.938m-1.826 5.289c-.46 0-.956-.015-1.454-.042v4.136h-4.07v-14.5c1.696-.118 2.984-.206 5.152-.184 3.57.034 6.224 1.225 6.245 5.032.019 3.896-2.583 5.558-5.873 5.558zm23.844.748v3.346h-9.384v-14.5h4.025v11.154h5.36zm7.889-2.537V7.708h4.024v8.114c0 2.21.828 3.259 2.537 3.259 1.682 0 2.538-1.085 2.538-3.26V7.709h3.914v8.617c0 3.915-2.388 6.167-6.496 6.167-4.21 0-6.517-2.187-6.517-6.167zm33.957-4.986h-4.243v10.869h-4.025v-10.87h-4.461v-3.63h12.729v3.63zm18.278 7.632v3.236h-9.886v-14.5h9.711v3.238h-5.686v2.252h5.27v3.15h-5.27v2.624h5.861zm8.983-2.646V7.708h4.024v8.114c0 2.21.828 3.259 2.537 3.259 1.682 0 2.538-1.085 2.538-3.26V7.709h3.914v8.617c0 3.915-2.388 6.167-6.496 6.167-4.21 0-6.517-2.187-6.517-6.167zm26.46-1.743h-.067l-.746 7.626H158.9l1.579-14.5h3.33l3.816 7.16 3.596-7.16h3.287l1.575 14.5h-3.78l-.832-7.67h-.07l-2.975 5.917h-1.872l-3.056-5.873zM10.168 18.406H0L4.314 0h9.513c2.78 0 4.835 2.592 4.2 5.299l-1.98 8.446a6.04 6.04 0 01-5.88 4.661zm9.886-12.967c1.758.84 2.827 2.824 2.346 4.88l-1.98 8.445a6.037 6.037 0 01-5.88 4.661H6.71l-.796 3.395-2.487-1.933L0 26.82l1.435-6.12h10.811a6.04 6.04 0 005.881-4.66l1.98-8.448a4.274 4.274 0 00-.052-2.153z"/></g></svg>