<svg width="152" height="32" fill="none" xmlns="http://www.w3.org/2000/svg"><path fill-rule="evenodd" clip-rule="evenodd" d="M13.146 21.26H1.334L6.344 0h11.054c3.23 0 5.617 2.993 4.88 6.12l-2.3 9.757c-.744 3.153-3.574 5.384-6.832 5.384zM24.633 6.284c.222.78.262 1.628.06 2.486l-2.3 9.758c-.743 3.153-3.572 5.384-6.832 5.384H2.999l-1.666 7.068 3.982-2.232 2.891 2.232.924-3.92h9.096c3.26 0 6.09-2.23 6.832-5.384l2.3-9.756c.56-2.374-.683-4.667-2.725-5.636z" fill="#0A4FCD"/><path fill-rule="evenodd" clip-rule="evenodd" d="M145.575 10.282c-2.221 0-3.852.882-4.864 2.35-.914-1.502-2.414-2.35-4.438-2.35-2.09 0-3.624.816-4.538 2.188v-1.73h-4.209v8.812c0 2.84-1.535 4.046-3.591 4.046-1.893 0-3.23-1.142-3.23-3.361V10.74h-4.212v10.018c0 4.343 2.71 6.758 6.169 6.758 2.187 0 3.885-.816 4.864-2.286v1.83h4.209v-9.172c0-2.449 1.272-3.689 3.068-3.689 1.762 0 2.743 1.174 2.743 3.1v9.76h4.209v-9.172c0-2.447 1.176-3.688 3.036-3.688 1.762 0 2.742 1.174 2.742 3.1v9.76h4.21V17.005c0-4.079-2.449-6.723-6.168-6.723zm-63.46.457v16.32h-4.21v-1.828c-.98 1.468-2.677 2.284-4.864 2.284-3.459 0-6.17-2.415-6.17-6.756V10.74h4.213v9.497c0 2.22 1.337 3.363 3.23 3.363 2.057 0 3.591-1.208 3.591-4.048V10.74h4.21zm27.488 6.626c-.523-2.35-2.285-3.296-4.047-3.296-2.252 0-3.786 1.208-4.276 3.296h8.323zm-3.656 6.332c1.632 0 2.938-.685 3.656-1.632l3.394 1.958c-1.534 2.22-3.981 3.492-7.116 3.492-5.481 0-8.942-3.753-8.942-8.617 0-4.862 3.492-8.616 8.617-8.616 4.829 0 8.257 3.819 8.257 8.616 0 .622-.065 1.176-.164 1.73h-12.304c.587 2.154 2.383 3.069 4.602 3.069zm-14.33-8.911v6.79c0 1.762 1.273 1.794 3.69 1.665v3.818c-5.909.652-7.9-1.078-7.9-5.484v-6.789H84.53l.037-4.047h2.838V7.442l4.211-1.272v4.57h4.347l-.95 4.046h-3.397zM59.071 27.06h4.21V3.233h-4.21V27.06zM48.525 15.34H44.51V8.423h4.015c1.925 0 3.329 1.468 3.329 3.458 0 1.959-1.404 3.46-3.33 3.46zm0-11.13h-8.519v11.13h-2.19l-.993 4.21h3.183v7.508h4.504V19.55h4.015c4.408 0 7.801-3.394 7.801-7.67 0-4.274-3.393-7.67-7.801-7.67z" fill="#131314"/></svg>